<svg xmlns="http://www.w3.org/2000/svg" width="212" height="150" viewBox="0 0 212 150" version="1.1"><path d="M 80 21.901 C 65.233 26.340, 61.721 27.783, 54.740 32.286 C 34.118 45.585, 28.610 48.723, 20.783 51.633 C 15.921 53.441, 10.412 55.207, 8.541 55.558 C 3.487 56.506, 2.891 60.927, 7.809 60.985 C 8.529 60.993, 8.869 61.403, 8.565 61.895 C 7.894 62.981, 10.804 64.239, 12.115 63.429 C 12.629 63.111, 12.926 63.438, 12.775 64.154 C 12.614 64.916, 14.368 66.090, 17 66.981 C 22.612 68.882, 26.440 71.259, 33.123 76.994 C 37.758 80.971, 38.273 81.201, 37.594 78.994 C 37.173 77.622, 36.839 75.703, 36.853 74.728 C 36.869 73.622, 36.432 73.225, 35.689 73.670 C 34.795 74.207, 34.777 74.026, 35.616 72.942 C 36.230 72.149, 36.664 70.230, 36.580 68.677 C 36.496 67.124, 36.789 65.631, 37.230 65.358 C 38.740 64.425, 36.835 62.918, 34.916 63.527 C 33.802 63.880, 33 63.663, 33 63.008 C 33 62.389, 33.359 62.104, 33.798 62.375 C 34.237 62.646, 35.249 62.455, 36.048 61.949 C 37.178 61.234, 36.994 61.027, 35.219 61.015 C 33.946 61.007, 32.655 61.774, 32.298 62.750 C 31.947 63.712, 30.804 65.614, 29.758 66.976 L 27.857 69.451 28.179 65.581 C 28.397 62.950, 28.055 61.555, 27.111 61.226 C 26.264 60.930, 25.994 61.181, 26.420 61.870 C 26.804 62.492, 26.641 63, 26.059 63 C 25.477 63, 24.970 62.438, 24.932 61.750 C 24.895 61.063, 24.417 61.422, 23.869 62.549 C 23.322 63.676, 21.890 65.210, 20.687 65.959 C 18.654 67.225, 18.602 67.197, 19.953 65.563 C 21.257 63.987, 21.205 63.827, 19.453 64.018 C 13.316 64.685, 12.179 63.060, 17.451 61.154 C 20.036 60.219, 20.751 59.479, 20.303 58.203 C 19.816 56.815, 19.955 56.731, 21.053 57.750 C 22.566 59.154, 24.397 59.451, 23.601 58.163 C 23.316 57.703, 24.456 57.408, 26.133 57.508 C 27.906 57.613, 29.398 57.127, 29.698 56.345 C 29.982 55.605, 30.603 55, 31.078 55 C 31.554 55, 34.440 53.896, 37.492 52.546 C 40.544 51.196, 43.257 50.071, 43.520 50.046 C 43.784 50.021, 44.868 49.212, 45.928 48.250 C 50.726 43.896, 54.402 41.735, 55.369 42.702 C 55.716 43.049, 56 42.808, 56 42.167 C 56 41.525, 56.563 40.996, 57.250 40.990 C 57.938 40.985, 61.320 39.192, 64.767 37.005 C 68.213 34.819, 72.263 32.736, 73.767 32.377 C 75.270 32.018, 76.950 31.375, 77.500 30.947 C 78.050 30.520, 78.950 30.075, 79.500 29.958 C 80.050 29.841, 80.950 29.607, 81.500 29.439 C 92.106 26.188, 109.702 25.022, 117.500 27.053 C 122.815 28.437, 123.854 28.873, 135.437 34.593 C 145.704 39.663, 150.859 43.303, 159.581 51.642 C 168.063 59.751, 172.878 64, 173.585 64 C 174.441 64, 188.372 77.046, 188.880 78.323 C 189.089 78.848, 188.715 78.942, 188.048 78.530 C 187.340 78.092, 185.730 78.809, 184.169 80.258 C 182.701 81.620, 179.250 84.019, 176.500 85.588 C 173.750 87.158, 166.751 92.955, 160.947 98.471 C 151.970 107.003, 148.835 109.274, 139.947 113.688 C 121.825 122.687, 119.313 123.366, 106.569 122.709 C 100.481 122.396, 92.361 121.400, 88.523 120.495 C 72.815 116.793, 57.603 106.763, 46.198 92.586 C 42.789 88.348, 40 85.193, 40 85.573 C 40 85.954, 36.512 82.943, 32.250 78.883 C 26.211 73.130, 23.347 71.153, 19.275 69.927 C 15.248 68.715, 14.301 68.658, 15.147 69.677 C 15.751 70.405, 16.752 71.001, 17.372 71.002 C 17.993 71.003, 20.975 74.417, 24 78.589 C 27.025 82.761, 31.644 88.824, 34.265 92.062 C 37.100 95.563, 38.315 97.700, 37.265 97.335 C 35.923 96.869, 36.068 97.295, 37.867 99.111 C 39.493 100.752, 40.381 101.107, 40.702 100.244 C 40.960 99.553, 41.630 99.272, 42.192 99.619 C 42.857 100.030, 42.795 100.509, 42.014 100.991 C 41.254 101.461, 42.515 102.555, 45.465 103.983 C 48.023 105.221, 52.902 108.945, 56.308 112.258 C 63.853 119.598, 74.556 125.037, 88.340 128.535 C 99.468 131.358, 105.402 131.546, 119.624 129.524 C 131.613 127.819, 136.489 126.054, 144.338 120.575 C 147.549 118.334, 152.724 114.831, 155.838 112.790 C 158.952 110.750, 164.049 106.700, 167.164 103.790 C 172.625 98.690, 188.689 89.029, 201.825 82.946 C 206.542 80.761, 208.064 79.570, 207.811 78.258 C 207.625 77.291, 206.804 76.500, 205.986 76.500 C 205.169 76.500, 203.965 75.825, 203.311 75 C 202.332 73.765, 201.760 73.721, 200.074 74.750 C 197.414 76.375, 197.326 76.355, 196.710 73.999 C 196.422 72.898, 196.595 72.249, 197.093 72.558 C 197.592 72.866, 197.990 72.754, 197.977 72.309 C 197.965 71.864, 192.742 68.577, 186.371 65.005 C 176.696 59.580, 173.353 57.024, 166.096 49.505 C 145.976 28.657, 135.571 22.770, 113.074 19.511 C 98.265 17.365, 94.088 17.667, 80 21.901 M 101.710 28.584 C 101.594 28.677, 98.879 29.030, 95.676 29.368 C 92.473 29.706, 89.098 30.456, 88.176 31.035 C 86.900 31.836, 87.319 31.929, 89.931 31.424 C 96.981 30.063, 102.729 30.347, 110.611 32.450 C 129.039 37.365, 139.303 48.803, 143.407 69 C 145.075 77.212, 145.070 78.110, 143.302 86 C 141.429 94.359, 137.984 100.625, 132.157 106.271 C 127.020 111.247, 118.765 116, 115.258 116 C 114.016 116, 113 116.502, 113 117.117 C 113 117.826, 113.821 117.965, 115.250 117.499 C 119.248 116.193, 123.525 116.379, 123.219 117.844 C 123.055 118.627, 123.472 118.940, 124.219 118.594 C 124.923 118.268, 126.287 117.724, 127.250 117.384 C 128.213 117.045, 129 116.095, 129 115.275 C 129 114.170, 129.670 113.951, 131.584 114.432 C 133.262 114.853, 133.942 114.715, 133.524 114.038 C 133.169 113.465, 134.085 112.538, 135.557 111.978 C 138.372 110.908, 144 105.472, 144 103.823 C 144 102.386, 146.366 100.289, 147.545 100.682 C 148.109 100.870, 148.631 100.231, 148.703 99.262 C 148.976 95.605, 149.676 93.956, 151.559 92.532 C 154.705 90.152, 154.933 90.441, 155.089 97 C 155.122 98.375, 155.379 98.935, 155.660 98.244 C 155.941 97.553, 156.563 97.230, 157.043 97.526 C 157.522 97.823, 158.621 96.701, 159.483 95.033 C 160.346 93.365, 161.281 92, 161.561 92 C 161.841 92, 161.589 92.900, 161 94 C 160.411 95.100, 160.340 96, 160.842 96 C 162.179 96, 163.732 93.748, 163.697 91.861 C 163.680 90.960, 164.459 88.553, 165.426 86.514 C 167.231 82.710, 166.925 76, 164.946 76 C 164.416 76, 164.538 75.111, 165.217 74.025 C 166.258 72.356, 166.143 71.818, 164.475 70.557 C 161.839 68.564, 160.776 68.627, 161.215 70.750 C 161.428 71.783, 162.380 72.428, 163.538 72.324 C 165.239 72.171, 165.295 72.305, 163.964 73.324 C 163.119 73.971, 162.586 75.273, 162.781 76.219 C 162.975 77.164, 162.668 78.739, 162.098 79.719 C 161.197 81.265, 161.057 81.142, 161.030 78.781 C 161.008 76.782, 160.603 76.215, 159.500 76.638 C 157.594 77.370, 157.392 72.055, 159.250 70.053 C 160.070 69.170, 160.097 68.933, 159.328 69.364 C 157.956 70.134, 155 64.769, 155 61.507 C 155 60.187, 154.075 58.900, 152.667 58.258 C 150.482 57.262, 149.333 54, 151.167 54 C 152.901 54, 151.902 51.068, 149.534 49.205 C 148.178 48.138, 147.353 46.981, 147.701 46.633 C 148.049 46.285, 147.683 46, 146.887 46 C 146.092 46, 144.793 45.100, 144 44 C 143.207 42.900, 141.983 42, 141.279 42 C 140.576 42, 140 41.550, 140 41 C 140 40.450, 139.325 40, 138.500 40 C 137.675 40, 137 39.649, 137 39.219 C 137 38.306, 131.076 35.629, 129.250 35.717 C 128.563 35.751, 128 35.427, 128 34.997 C 128 33.009, 110.732 27.821, 105.325 28.185 C 103.452 28.311, 101.825 28.491, 101.710 28.584 M 80.500 33.464 C 78.850 34.219, 78.201 34.874, 79.059 34.919 C 79.916 34.963, 81.491 34.339, 82.559 33.532 C 84.970 31.708, 84.377 31.689, 80.500 33.464 M 71.458 41.068 C 71.095 41.656, 70.175 41.897, 69.414 41.605 C 67.931 41.036, 65.410 44.659, 65.834 46.750 C 66.151 48.311, 64.363 48.396, 63.417 46.865 C 62.236 44.956, 60.015 50.160, 61.125 52.234 C 61.744 53.390, 61.713 54.043, 61.035 54.125 C 60.466 54.194, 59.550 54.362, 59 54.500 C 58.450 54.638, 57.685 54.806, 57.300 54.875 C 56.915 54.944, 57.116 55.516, 57.746 56.146 C 58.608 57.008, 57.975 58.160, 55.196 60.785 C 53.163 62.705, 52.247 63.743, 53.161 63.090 C 54.178 62.363, 55.052 62.274, 55.414 62.861 C 56.193 64.121, 54.991 67.294, 53.361 68.280 C 52.439 68.837, 52.335 69.752, 52.998 71.494 C 53.578 73.020, 53.565 74.151, 52.962 74.524 C 52.433 74.851, 52 76.666, 52 78.559 C 52 80.452, 51.564 82, 51.031 82 C 50.499 82, 50.334 82.787, 50.666 83.750 C 51.156 85.171, 50.968 85.124, 49.666 83.500 C 48.231 81.709, 48.060 81.683, 48.032 83.250 C 48.014 84.213, 47.523 85, 46.941 85 C 46.359 85, 46.131 84.597, 46.435 84.105 C 46.740 83.612, 46.316 82.952, 45.494 82.636 C 43.833 81.999, 43.427 83.528, 45 84.500 C 45.550 84.840, 46.002 85.879, 46.004 86.809 C 46.009 89.144, 50.209 95.786, 50.727 94.280 C 51.020 93.429, 51.762 93.632, 53.180 94.953 C 54.425 96.113, 54.916 97.361, 54.446 98.173 C 54.024 98.903, 54.030 99.184, 54.459 98.798 C 55.228 98.104, 58.339 100.512, 57.786 101.374 C 57.629 101.619, 58.725 102.782, 60.222 103.960 C 62.367 105.647, 63.359 105.878, 64.906 105.050 C 67.278 103.781, 69.070 103.670, 67.104 104.914 C 65.006 106.243, 66.281 108.237, 70.875 110.814 C 74.297 112.734, 75 112.861, 75 111.564 C 75 110.704, 75.408 110, 75.906 110 C 76.405 110, 76.591 111.013, 76.320 112.250 C 75.923 114.058, 76.037 114.205, 76.898 113 C 77.823 111.704, 77.971 111.738, 77.985 113.250 C 78.002 115.265, 79.590 115.602, 80.338 113.750 C 80.639 113.003, 80.874 113.205, 80.921 114.250 C 80.964 115.213, 81.338 116.031, 81.750 116.069 C 82.162 116.107, 83.737 116.301, 85.250 116.501 C 88.292 116.902, 89.006 115.315, 86.250 114.279 C 85.287 113.917, 82.402 112.392, 79.839 110.889 C 77.275 109.386, 74.953 108.380, 74.680 108.654 C 74.406 108.927, 73.886 108.217, 73.524 107.075 C 73.162 105.934, 72.146 105, 71.266 105 C 70.386 105, 69.949 104.718, 70.294 104.373 C 70.639 104.028, 69.571 101.783, 67.920 99.384 C 61.705 90.350, 58.935 79.350, 60.005 67.944 C 60.999 57.345, 65.314 48.221, 72.392 41.750 C 73.445 40.788, 73.814 40, 73.212 40 C 72.610 40, 71.821 40.481, 71.458 41.068 M 139.545 50.743 C 139.139 51.801, 139.553 52.931, 140.637 53.724 C 142.733 55.256, 144 55.360, 144 54 C 144 53.450, 143.475 53, 142.833 53 C 142.192 53, 142.003 52.663, 142.415 52.252 C 142.827 51.840, 143.742 52.295, 144.450 53.263 C 145.606 54.844, 145.867 54.865, 147.026 53.469 C 148.702 51.449, 147.141 49.799, 143.141 49.361 C 141.087 49.136, 140.002 49.553, 139.545 50.743 M 105.667 52.667 C 105.300 53.033, 105 53.798, 105 54.367 C 105 54.993, 105.466 54.934, 106.183 54.217 C 106.834 53.566, 107.134 52.801, 106.850 52.517 C 106.566 52.233, 106.033 52.300, 105.667 52.667 M 108.459 54.067 C 108.096 54.653, 108.014 55.348, 108.276 55.610 C 108.538 55.872, 109.019 55.392, 109.345 54.543 C 110.021 52.781, 109.445 52.471, 108.459 54.067 M 78.750 55.080 C 76.854 56.184, 76.321 61.462, 78 62.500 C 79.765 63.591, 79.069 64.999, 76.750 65.030 C 74.881 65.056, 74.770 65.219, 76.094 65.993 C 78.066 67.146, 85 66.126, 85 64.684 C 85 64.104, 85.908 62.662, 87.018 61.480 L 89.037 59.332 86.566 56.666 C 83.965 53.859, 81.652 53.390, 78.750 55.080 M 112.459 55.067 C 112.096 55.653, 112.014 56.348, 112.276 56.610 C 112.538 56.872, 113.019 56.392, 113.345 55.543 C 114.021 53.781, 113.445 53.471, 112.459 55.067 M 119.059 57.653 C 116.862 60.445, 116.978 62.219, 119.202 59.865 C 122.092 56.807, 123.204 55, 122.195 55 C 121.618 55, 120.206 56.194, 119.059 57.653 M 11.397 58.833 C 11.884 59.621, 18 59.208, 18 58.387 C 18 58.174, 16.398 58, 14.441 58 C 12.484 58, 11.114 58.375, 11.397 58.833 M 165.230 63.750 C 166.081 64.717, 167.310 69.374, 167.975 74.153 C 169.087 82.145, 169.027 83.152, 167.183 87.320 L 165.186 91.833 171.925 86.917 C 175.631 84.212, 179.119 82, 179.677 82 C 181.433 82, 183.789 78.567, 183.131 76.966 C 181.841 73.831, 179.127 70.803, 178.148 71.408 C 177.592 71.752, 176.503 71.129, 175.729 70.023 C 174.954 68.917, 174.006 68.328, 173.621 68.713 C 173.236 69.098, 172.661 68.420, 172.344 67.206 C 172.026 65.993, 171.199 65, 170.506 65 C 169.812 65, 168.685 64.325, 168 63.500 C 167.315 62.675, 166.065 62, 165.223 62 C 163.849 62, 163.850 62.181, 165.230 63.750 M 125 67 C 123.718 67.828, 123.754 67.972, 125.250 67.985 C 126.213 67.993, 127 67.550, 127 67 C 127 65.780, 126.887 65.780, 125 67 M 122 70.942 C 122 72.513, 123.978 73.222, 126.557 72.575 C 130.081 71.691, 129.556 70.540, 125.498 70.251 C 123.574 70.113, 122 70.424, 122 70.942 M 77 72 C 75.667 72.862, 75.667 72.960, 77 72.885 C 77.825 72.839, 79.625 72.440, 81 72 L 83.500 71.199 81 71.115 C 79.625 71.069, 77.825 71.467, 77 72 M 122.064 74.939 C 120.874 75.692, 120.853 76.117, 121.937 77.424 C 122.893 78.576, 122.925 79, 122.055 79 C 121.297 79, 121.110 79.771, 121.540 81.125 C 122.036 82.688, 121.881 83.044, 120.953 82.471 C 120.116 81.954, 119.941 82.095, 120.432 82.889 C 120.839 83.548, 120.630 84.741, 119.968 85.538 C 119.306 86.336, 119.006 87.914, 119.301 89.044 C 119.694 90.544, 119.388 91.054, 118.169 90.934 C 115.040 90.626, 114.233 90.999, 113.710 93 C 113.363 94.328, 113.680 95, 114.653 95 C 115.459 95, 115.865 95.409, 115.556 95.910 C 114.796 97.139, 115.967 100, 117.229 100 C 117.815 100, 117.718 99.365, 117.001 98.501 C 115.923 97.203, 116.209 97.086, 119.128 97.634 L 122.500 98.267 119.250 95.295 C 116.084 92.399, 114.552 89.553, 117.456 91.964 C 118.257 92.628, 119.302 92.931, 119.778 92.637 C 120.254 92.343, 121.394 92.979, 122.312 94.051 C 123.865 95.865, 127 96.763, 127 95.394 C 127 95.061, 125.650 93.083, 124 91 C 122.350 88.917, 121 86.839, 121 86.384 C 121 85.928, 121.661 86.499, 122.469 87.653 C 123.278 88.807, 124.853 89.990, 125.969 90.282 C 128.249 90.878, 128.600 90, 126.800 88.200 C 125.867 87.267, 125.882 87, 126.867 87 C 127.716 87, 127.910 86.257, 127.455 84.750 C 126.900 82.914, 127.017 82.730, 128.088 83.750 C 129.582 85.174, 132 85.422, 132 84.152 C 132 83.685, 130.120 82.565, 127.823 81.662 C 123.136 79.822, 123.132 79.174, 127.802 78.818 C 129.561 78.684, 131 78.482, 131 78.369 C 131 78.072, 124.337 73.997, 123.882 74.015 C 123.672 74.024, 122.854 74.439, 122.064 74.939 M 49 76 C 49 76.550, 49.450 77, 50 77 C 50.550 77, 51 76.550, 51 76 C 51 75.450, 50.550 75, 50 75 C 49.450 75, 49 75.450, 49 76 M 81.500 76 C 81.160 76.550, 81.557 77, 82.382 77 C 83.207 77, 84.160 76.550, 84.500 76 C 84.840 75.450, 84.443 75, 83.618 75 C 82.793 75, 81.840 75.450, 81.500 76 M 158 79 C 158 79.550, 158.450 80, 159 80 C 159.550 80, 160 79.550, 160 79 C 160 78.450, 159.550 78, 159 78 C 158.450 78, 158 78.450, 158 79 M 82.500 81 C 82.160 81.550, 82.332 82, 82.882 82 C 83.432 82, 84.160 81.550, 84.500 81 C 84.840 80.450, 84.668 80, 84.118 80 C 83.568 80, 82.840 80.450, 82.500 81 M 163.500 81 C 163.840 81.550, 163.690 82, 163.166 82 C 161.513 82, 161.059 84.809, 162.615 85.406 C 163.434 85.720, 163.851 85.569, 163.543 85.069 C 163.234 84.570, 163.639 83.504, 164.443 82.700 C 165.872 81.271, 165.557 80, 163.774 80 C 163.284 80, 163.160 80.450, 163.500 81 M 158.630 83 C 159.686 87.314, 160.667 88.336, 160.667 85.122 C 160.667 83.453, 160.330 82.296, 159.919 82.550 C 159.507 82.804, 158.912 82.447, 158.595 81.756 C 158.278 81.065, 158.294 81.625, 158.630 83 M 155.465 83.420 C 155.804 84.501, 155.507 85.696, 154.784 86.155 C 153.746 86.813, 153.751 86.972, 154.809 86.985 C 155.529 86.993, 155.843 87.445, 155.507 87.989 C 155.157 88.555, 155.558 88.723, 156.448 88.382 C 158.348 87.653, 158.342 87.173, 156.395 84 C 155.425 82.418, 155.083 82.205, 155.465 83.420 M 110.151 93.907 C 108.336 95.028, 109.108 99.262, 111.181 99.561 C 113.404 99.881, 114.062 97.919, 112.630 95.243 C 111.864 93.811, 111.032 93.362, 110.151 93.907 M 105.630 95.523 C 104.705 97.931, 106.068 99.630, 107.242 97.532 C 107.863 96.422, 107.861 95.461, 107.236 94.836 C 106.609 94.209, 106.041 94.451, 105.630 95.523 M 152.648 95.474 C 152.340 96.278, 152.587 97.245, 153.198 97.622 C 153.839 98.019, 154.030 97.857, 153.648 97.240 C 153.285 96.652, 153.531 95.990, 154.195 95.768 C 155.043 95.486, 155.076 95.165, 154.306 94.689 C 153.703 94.316, 152.957 94.669, 152.648 95.474 M 95.269 117.693 C 96.242 117.947, 97.592 117.930, 98.269 117.656 C 98.946 117.382, 98.150 117.175, 96.500 117.195 C 94.850 117.215, 94.296 117.439, 95.269 117.693 M 109 117.393 C 109 117.609, 109.675 118.045, 110.500 118.362 C 111.325 118.678, 112 118.501, 112 117.969 C 112 117.436, 111.325 117, 110.500 117 C 109.675 117, 109 117.177, 109 117.393" stroke="none" fill="#ce4228" fill-rule="evenodd"/><path d="M 86 15.997 C 82.425 17.097, 76.406 18.942, 72.625 20.097 C 62.097 23.311, 54.300 27.156, 45.217 33.612 C 40.662 36.851, 35.262 40.419, 33.217 41.541 C 31.173 42.664, 28.375 44.307, 27 45.193 C 25.625 46.079, 22.932 47.132, 21.015 47.533 C 19.098 47.934, 16.623 48.853, 15.515 49.576 C 14.407 50.298, 11.257 51.390, 8.516 52.001 C 2.013 53.452, 0 55.358, 0 60.062 C -0 63.376, 0.654 64.379, 5.609 68.657 C 14.677 76.487, 18.124 80.103, 25 88.999 C 33.106 99.486, 39.329 105.622, 44.500 108.226 C 46.700 109.334, 51.505 113.122, 55.177 116.644 C 62.701 123.859, 71.132 128.206, 85 132.019 C 98.374 135.695, 118.135 135.059, 134.619 130.421 C 138.930 129.208, 148.217 123.447, 150.022 120.866 C 150.871 119.652, 157.796 115.143, 162.308 112.866 C 164.614 111.703, 168.750 108.849, 171.500 106.524 C 176.836 102.014, 186.628 96.176, 202 88.342 C 211.320 83.592, 211.506 83.427, 211.816 79.652 C 212.030 77.052, 211.570 75.182, 210.398 73.888 C 208.919 72.253, 200.248 67.515, 182.500 58.643 C 180.300 57.543, 174.973 53.067, 170.663 48.696 C 166.353 44.325, 158.253 36.972, 152.663 32.357 C 140.926 22.666, 132.290 18.725, 117.500 16.311 C 102.202 13.814, 93.376 13.726, 86 15.997 M 80 21.901 C 65.233 26.340, 61.721 27.783, 54.740 32.286 C 34.118 45.585, 28.610 48.723, 20.783 51.633 C 15.921 53.441, 10.412 55.207, 8.541 55.558 C 3.487 56.506, 2.891 60.927, 7.809 60.985 C 8.529 60.993, 8.869 61.403, 8.565 61.895 C 7.894 62.981, 10.804 64.239, 12.115 63.429 C 12.629 63.111, 12.926 63.438, 12.775 64.154 C 12.614 64.916, 14.368 66.090, 17 66.981 C 22.612 68.882, 26.440 71.259, 33.123 76.994 C 37.758 80.971, 38.273 81.201, 37.594 78.994 C 37.173 77.622, 36.839 75.703, 36.853 74.728 C 36.869 73.622, 36.432 73.225, 35.689 73.670 C 34.795 74.207, 34.777 74.026, 35.616 72.942 C 36.230 72.149, 36.664 70.230, 36.580 68.677 C 36.496 67.124, 36.789 65.631, 37.230 65.358 C 38.740 64.425, 36.835 62.918, 34.916 63.527 C 33.802 63.880, 33 63.663, 33 63.008 C 33 62.389, 33.359 62.104, 33.798 62.375 C 34.237 62.646, 35.249 62.455, 36.048 61.949 C 37.178 61.234, 36.994 61.027, 35.219 61.015 C 33.946 61.007, 32.655 61.774, 32.298 62.750 C 31.947 63.712, 30.804 65.614, 29.758 66.976 L 27.857 69.451 28.179 65.581 C 28.397 62.950, 28.055 61.555, 27.111 61.226 C 26.264 60.930, 25.994 61.181, 26.420 61.870 C 26.804 62.492, 26.641 63, 26.059 63 C 25.477 63, 24.970 62.438, 24.932 61.750 C 24.895 61.063, 24.417 61.422, 23.869 62.549 C 23.322 63.676, 21.890 65.210, 20.687 65.959 C 18.654 67.225, 18.602 67.197, 19.953 65.563 C 21.257 63.987, 21.205 63.827, 19.453 64.018 C 13.316 64.685, 12.179 63.060, 17.451 61.154 C 20.036 60.219, 20.751 59.479, 20.303 58.203 C 19.816 56.815, 19.955 56.731, 21.053 57.750 C 22.566 59.154, 24.397 59.451, 23.601 58.163 C 23.316 57.703, 24.456 57.408, 26.133 57.508 C 27.906 57.613, 29.398 57.127, 29.698 56.345 C 29.982 55.605, 30.603 55, 31.078 55 C 31.554 55, 34.440 53.896, 37.492 52.546 C 40.544 51.196, 43.257 50.071, 43.520 50.046 C 43.784 50.021, 44.868 49.212, 45.928 48.250 C 50.726 43.896, 54.402 41.735, 55.369 42.702 C 55.716 43.049, 56 42.808, 56 42.167 C 56 41.525, 56.563 40.996, 57.250 40.990 C 57.938 40.985, 61.320 39.192, 64.767 37.005 C 68.213 34.819, 72.263 32.736, 73.767 32.377 C 75.270 32.018, 76.950 31.375, 77.500 30.947 C 78.050 30.520, 78.950 30.075, 79.500 29.958 C 80.050 29.841, 80.950 29.607, 81.500 29.439 C 92.106 26.188, 109.702 25.022, 117.500 27.053 C 122.815 28.437, 123.854 28.873, 135.437 34.593 C 145.704 39.663, 150.859 43.303, 159.581 51.642 C 168.063 59.751, 172.878 64, 173.585 64 C 174.441 64, 188.372 77.046, 188.880 78.323 C 189.089 78.848, 188.715 78.942, 188.048 78.530 C 187.340 78.092, 185.730 78.809, 184.169 80.258 C 182.701 81.620, 179.250 84.019, 176.500 85.588 C 173.750 87.158, 166.751 92.955, 160.947 98.471 C 151.970 107.003, 148.835 109.274, 139.947 113.688 C 121.825 122.687, 119.313 123.366, 106.569 122.709 C 100.481 122.396, 92.361 121.400, 88.523 120.495 C 72.815 116.793, 57.603 106.763, 46.198 92.586 C 42.789 88.348, 40 85.193, 40 85.573 C 40 85.954, 36.512 82.943, 32.250 78.883 C 26.211 73.130, 23.347 71.153, 19.275 69.927 C 15.248 68.715, 14.301 68.658, 15.147 69.677 C 15.751 70.405, 16.752 71.001, 17.372 71.002 C 17.993 71.003, 20.975 74.417, 24 78.589 C 27.025 82.761, 31.644 88.824, 34.265 92.062 C 37.100 95.563, 38.315 97.700, 37.265 97.335 C 35.923 96.869, 36.068 97.295, 37.867 99.111 C 39.493 100.752, 40.381 101.107, 40.702 100.244 C 40.960 99.553, 41.630 99.272, 42.192 99.619 C 42.857 100.030, 42.795 100.509, 42.014 100.991 C 41.254 101.461, 42.515 102.555, 45.465 103.983 C 48.023 105.221, 52.902 108.945, 56.308 112.258 C 63.853 119.598, 74.556 125.037, 88.340 128.535 C 99.468 131.358, 105.402 131.546, 119.624 129.524 C 131.613 127.819, 136.489 126.054, 144.338 120.575 C 147.549 118.334, 152.724 114.831, 155.838 112.790 C 158.952 110.750, 164.049 106.700, 167.164 103.790 C 172.625 98.690, 188.689 89.029, 201.825 82.946 C 206.542 80.761, 208.064 79.570, 207.811 78.258 C 207.625 77.291, 206.804 76.500, 205.986 76.500 C 205.169 76.500, 203.965 75.825, 203.311 75 C 202.332 73.765, 201.760 73.721, 200.074 74.750 C 197.414 76.375, 197.326 76.355, 196.710 73.999 C 196.422 72.898, 196.595 72.249, 197.093 72.558 C 197.592 72.866, 197.990 72.754, 197.977 72.309 C 197.965 71.864, 192.742 68.577, 186.371 65.005 C 176.696 59.580, 173.353 57.024, 166.096 49.505 C 145.976 28.657, 135.571 22.770, 113.074 19.511 C 98.265 17.365, 94.088 17.667, 80 21.901 M 101.710 28.584 C 101.594 28.677, 98.879 29.030, 95.676 29.368 C 92.473 29.706, 89.098 30.456, 88.176 31.035 C 86.900 31.836, 87.319 31.929, 89.931 31.424 C 96.981 30.063, 102.729 30.347, 110.611 32.450 C 129.039 37.365, 139.303 48.803, 143.407 69 C 145.075 77.212, 145.070 78.110, 143.302 86 C 141.429 94.359, 137.984 100.625, 132.157 106.271 C 127.020 111.247, 118.765 116, 115.258 116 C 114.016 116, 113 116.502, 113 117.117 C 113 117.826, 113.821 117.965, 115.250 117.499 C 119.248 116.193, 123.525 116.379, 123.219 117.844 C 123.055 118.627, 123.472 118.940, 124.219 118.594 C 124.923 118.268, 126.287 117.724, 127.250 117.384 C 128.213 117.045, 129 116.095, 129 115.275 C 129 114.170, 129.670 113.951, 131.584 114.432 C 133.262 114.853, 133.942 114.715, 133.524 114.038 C 133.169 113.465, 134.085 112.538, 135.557 111.978 C 138.372 110.908, 144 105.472, 144 103.823 C 144 102.386, 146.366 100.289, 147.545 100.682 C 148.109 100.870, 148.631 100.231, 148.703 99.262 C 148.976 95.605, 149.676 93.956, 151.559 92.532 C 154.705 90.152, 154.933 90.441, 155.089 97 C 155.122 98.375, 155.379 98.935, 155.660 98.244 C 155.941 97.553, 156.563 97.230, 157.043 97.526 C 157.522 97.823, 158.621 96.701, 159.483 95.033 C 160.346 93.365, 161.281 92, 161.561 92 C 161.841 92, 161.589 92.900, 161 94 C 160.411 95.100, 160.340 96, 160.842 96 C 162.179 96, 163.732 93.748, 163.697 91.861 C 163.680 90.960, 164.459 88.553, 165.426 86.514 C 167.231 82.710, 166.925 76, 164.946 76 C 164.416 76, 164.538 75.111, 165.217 74.025 C 166.258 72.356, 166.143 71.818, 164.475 70.557 C 161.839 68.564, 160.776 68.627, 161.215 70.750 C 161.428 71.783, 162.380 72.428, 163.538 72.324 C 165.239 72.171, 165.295 72.305, 163.964 73.324 C 163.119 73.971, 162.586 75.273, 162.781 76.219 C 162.975 77.164, 162.668 78.739, 162.098 79.719 C 161.197 81.265, 161.057 81.142, 161.030 78.781 C 161.008 76.782, 160.603 76.215, 159.500 76.638 C 157.594 77.370, 157.392 72.055, 159.250 70.053 C 160.070 69.170, 160.097 68.933, 159.328 69.364 C 157.956 70.134, 155 64.769, 155 61.507 C 155 60.187, 154.075 58.900, 152.667 58.258 C 150.482 57.262, 149.333 54, 151.167 54 C 152.901 54, 151.902 51.068, 149.534 49.205 C 148.178 48.138, 147.353 46.981, 147.701 46.633 C 148.049 46.285, 147.683 46, 146.887 46 C 146.092 46, 144.793 45.100, 144 44 C 143.207 42.900, 141.983 42, 141.279 42 C 140.576 42, 140 41.550, 140 41 C 140 40.450, 139.325 40, 138.500 40 C 137.675 40, 137 39.649, 137 39.219 C 137 38.306, 131.076 35.629, 129.250 35.717 C 128.563 35.751, 128 35.427, 128 34.997 C 128 33.009, 110.732 27.821, 105.325 28.185 C 103.452 28.311, 101.825 28.491, 101.710 28.584 M 80.500 33.464 C 78.850 34.219, 78.201 34.874, 79.059 34.919 C 79.916 34.963, 81.491 34.339, 82.559 33.532 C 84.970 31.708, 84.377 31.689, 80.500 33.464 M 71.458 41.068 C 71.095 41.656, 70.175 41.897, 69.414 41.605 C 67.931 41.036, 65.410 44.659, 65.834 46.750 C 66.151 48.311, 64.363 48.396, 63.417 46.865 C 62.236 44.956, 60.015 50.160, 61.125 52.234 C 61.744 53.390, 61.713 54.043, 61.035 54.125 C 60.466 54.194, 59.550 54.362, 59 54.500 C 58.450 54.638, 57.685 54.806, 57.300 54.875 C 56.915 54.944, 57.116 55.516, 57.746 56.146 C 58.608 57.008, 57.975 58.160, 55.196 60.785 C 53.163 62.705, 52.247 63.743, 53.161 63.090 C 54.178 62.363, 55.052 62.274, 55.414 62.861 C 56.193 64.121, 54.991 67.294, 53.361 68.280 C 52.439 68.837, 52.335 69.752, 52.998 71.494 C 53.578 73.020, 53.565 74.151, 52.962 74.524 C 52.433 74.851, 52 76.666, 52 78.559 C 52 80.452, 51.564 82, 51.031 82 C 50.499 82, 50.334 82.787, 50.666 83.750 C 51.156 85.171, 50.968 85.124, 49.666 83.500 C 48.231 81.709, 48.060 81.683, 48.032 83.250 C 48.014 84.213, 47.523 85, 46.941 85 C 46.359 85, 46.131 84.597, 46.435 84.105 C 46.740 83.612, 46.316 82.952, 45.494 82.636 C 43.833 81.999, 43.427 83.528, 45 84.500 C 45.550 84.840, 46.002 85.879, 46.004 86.809 C 46.009 89.144, 50.209 95.786, 50.727 94.280 C 51.020 93.429, 51.762 93.632, 53.180 94.953 C 54.425 96.113, 54.916 97.361, 54.446 98.173 C 54.024 98.903, 54.030 99.184, 54.459 98.798 C 55.228 98.104, 58.339 100.512, 57.786 101.374 C 57.629 101.619, 58.725 102.782, 60.222 103.960 C 62.367 105.647, 63.359 105.878, 64.906 105.050 C 67.278 103.781, 69.070 103.670, 67.104 104.914 C 65.006 106.243, 66.281 108.237, 70.875 110.814 C 74.297 112.734, 75 112.861, 75 111.564 C 75 110.704, 75.408 110, 75.906 110 C 76.405 110, 76.591 111.013, 76.320 112.250 C 75.923 114.058, 76.037 114.205, 76.898 113 C 77.823 111.704, 77.971 111.738, 77.985 113.250 C 78.002 115.265, 79.590 115.602, 80.338 113.750 C 80.639 113.003, 80.874 113.205, 80.921 114.250 C 80.964 115.213, 81.338 116.031, 81.750 116.069 C 82.162 116.107, 83.737 116.301, 85.250 116.501 C 88.292 116.902, 89.006 115.315, 86.250 114.279 C 85.287 113.917, 82.402 112.392, 79.839 110.889 C 77.275 109.386, 74.953 108.380, 74.680 108.654 C 74.406 108.927, 73.886 108.217, 73.524 107.075 C 73.162 105.934, 72.146 105, 71.266 105 C 70.386 105, 69.949 104.718, 70.294 104.373 C 70.639 104.028, 69.571 101.783, 67.920 99.384 C 61.705 90.350, 58.935 79.350, 60.005 67.944 C 60.999 57.345, 65.314 48.221, 72.392 41.750 C 73.445 40.788, 73.814 40, 73.212 40 C 72.610 40, 71.821 40.481, 71.458 41.068 M 139.545 50.743 C 139.139 51.801, 139.553 52.931, 140.637 53.724 C 142.733 55.256, 144 55.360, 144 54 C 144 53.450, 143.475 53, 142.833 53 C 142.192 53, 142.003 52.663, 142.415 52.252 C 142.827 51.840, 143.742 52.295, 144.450 53.263 C 145.606 54.844, 145.867 54.865, 147.026 53.469 C 148.702 51.449, 147.141 49.799, 143.141 49.361 C 141.087 49.136, 140.002 49.553, 139.545 50.743 M 105.667 52.667 C 105.300 53.033, 105 53.798, 105 54.367 C 105 54.993, 105.466 54.934, 106.183 54.217 C 106.834 53.566, 107.134 52.801, 106.850 52.517 C 106.566 52.233, 106.033 52.300, 105.667 52.667 M 108.459 54.067 C 108.096 54.653, 108.014 55.348, 108.276 55.610 C 108.538 55.872, 109.019 55.392, 109.345 54.543 C 110.021 52.781, 109.445 52.471, 108.459 54.067 M 78.750 55.080 C 76.854 56.184, 76.321 61.462, 78 62.500 C 79.765 63.591, 79.069 64.999, 76.750 65.030 C 74.881 65.056, 74.770 65.219, 76.094 65.993 C 78.066 67.146, 85 66.126, 85 64.684 C 85 64.104, 85.908 62.662, 87.018 61.480 L 89.037 59.332 86.566 56.666 C 83.965 53.859, 81.652 53.390, 78.750 55.080 M 112.459 55.067 C 112.096 55.653, 112.014 56.348, 112.276 56.610 C 112.538 56.872, 113.019 56.392, 113.345 55.543 C 114.021 53.781, 113.445 53.471, 112.459 55.067 M 119.059 57.653 C 116.862 60.445, 116.978 62.219, 119.202 59.865 C 122.092 56.807, 123.204 55, 122.195 55 C 121.618 55, 120.206 56.194, 119.059 57.653 M 11.397 58.833 C 11.884 59.621, 18 59.208, 18 58.387 C 18 58.174, 16.398 58, 14.441 58 C 12.484 58, 11.114 58.375, 11.397 58.833 M 165.230 63.750 C 166.081 64.717, 167.310 69.374, 167.975 74.153 C 169.087 82.145, 169.027 83.152, 167.183 87.320 L 165.186 91.833 171.925 86.917 C 175.631 84.212, 179.119 82, 179.677 82 C 181.433 82, 183.789 78.567, 183.131 76.966 C 181.841 73.831, 179.127 70.803, 178.148 71.408 C 177.592 71.752, 176.503 71.129, 175.729 70.023 C 174.954 68.917, 174.006 68.328, 173.621 68.713 C 173.236 69.098, 172.661 68.420, 172.344 67.206 C 172.026 65.993, 171.199 65, 170.506 65 C 169.812 65, 168.685 64.325, 168 63.500 C 167.315 62.675, 166.065 62, 165.223 62 C 163.849 62, 163.850 62.181, 165.230 63.750 M 125 67 C 123.718 67.828, 123.754 67.972, 125.250 67.985 C 126.213 67.993, 127 67.550, 127 67 C 127 65.780, 126.887 65.780, 125 67 M 122 70.942 C 122 72.513, 123.978 73.222, 126.557 72.575 C 130.081 71.691, 129.556 70.540, 125.498 70.251 C 123.574 70.113, 122 70.424, 122 70.942 M 77 72 C 75.667 72.862, 75.667 72.960, 77 72.885 C 77.825 72.839, 79.625 72.440, 81 72 L 83.500 71.199 81 71.115 C 79.625 71.069, 77.825 71.467, 77 72 M 122.064 74.939 C 120.874 75.692, 120.853 76.117, 121.937 77.424 C 122.893 78.576, 122.925 79, 122.055 79 C 121.297 79, 121.110 79.771, 121.540 81.125 C 122.036 82.688, 121.881 83.044, 120.953 82.471 C 120.116 81.954, 119.941 82.095, 120.432 82.889 C 120.839 83.548, 120.630 84.741, 119.968 85.538 C 119.306 86.336, 119.006 87.914, 119.301 89.044 C 119.694 90.544, 119.388 91.054, 118.169 90.934 C 115.040 90.626, 114.233 90.999, 113.710 93 C 113.363 94.328, 113.680 95, 114.653 95 C 115.459 95, 115.865 95.409, 115.556 95.910 C 114.796 97.139, 115.967 100, 117.229 100 C 117.815 100, 117.718 99.365, 117.001 98.501 C 115.923 97.203, 116.209 97.086, 119.128 97.634 L 122.500 98.267 119.250 95.295 C 116.084 92.399, 114.552 89.553, 117.456 91.964 C 118.257 92.628, 119.302 92.931, 119.778 92.637 C 120.254 92.343, 121.394 92.979, 122.312 94.051 C 123.865 95.865, 127 96.763, 127 95.394 C 127 95.061, 125.650 93.083, 124 91 C 122.350 88.917, 121 86.839, 121 86.384 C 121 85.928, 121.661 86.499, 122.469 87.653 C 123.278 88.807, 124.853 89.990, 125.969 90.282 C 128.249 90.878, 128.600 90, 126.800 88.200 C 125.867 87.267, 125.882 87, 126.867 87 C 127.716 87, 127.910 86.257, 127.455 84.750 C 126.900 82.914, 127.017 82.730, 128.088 83.750 C 129.582 85.174, 132 85.422, 132 84.152 C 132 83.685, 130.120 82.565, 127.823 81.662 C 123.136 79.822, 123.132 79.174, 127.802 78.818 C 129.561 78.684, 131 78.482, 131 78.369 C 131 78.072, 124.337 73.997, 123.882 74.015 C 123.672 74.024, 122.854 74.439, 122.064 74.939 M 49 76 C 49 76.550, 49.450 77, 50 77 C 50.550 77, 51 76.550, 51 76 C 51 75.450, 50.550 75, 50 75 C 49.450 75, 49 75.450, 49 76 M 81.500 76 C 81.160 76.550, 81.557 77, 82.382 77 C 83.207 77, 84.160 76.550, 84.500 76 C 84.840 75.450, 84.443 75, 83.618 75 C 82.793 75, 81.840 75.450, 81.500 76 M 158 79 C 158 79.550, 158.450 80, 159 80 C 159.550 80, 160 79.550, 160 79 C 160 78.450, 159.550 78, 159 78 C 158.450 78, 158 78.450, 158 79 M 82.500 81 C 82.160 81.550, 82.332 82, 82.882 82 C 83.432 82, 84.160 81.550, 84.500 81 C 84.840 80.450, 84.668 80, 84.118 80 C 83.568 80, 82.840 80.450, 82.500 81 M 163.500 81 C 163.840 81.550, 163.690 82, 163.166 82 C 161.513 82, 161.059 84.809, 162.615 85.406 C 163.434 85.720, 163.851 85.569, 163.543 85.069 C 163.234 84.570, 163.639 83.504, 164.443 82.700 C 165.872 81.271, 165.557 80, 163.774 80 C 163.284 80, 163.160 80.450, 163.500 81 M 158.630 83 C 159.686 87.314, 160.667 88.336, 160.667 85.122 C 160.667 83.453, 160.330 82.296, 159.919 82.550 C 159.507 82.804, 158.912 82.447, 158.595 81.756 C 158.278 81.065, 158.294 81.625, 158.630 83 M 155.465 83.420 C 155.804 84.501, 155.507 85.696, 154.784 86.155 C 153.746 86.813, 153.751 86.972, 154.809 86.985 C 155.529 86.993, 155.843 87.445, 155.507 87.989 C 155.157 88.555, 155.558 88.723, 156.448 88.382 C 158.348 87.653, 158.342 87.173, 156.395 84 C 155.425 82.418, 155.083 82.205, 155.465 83.420 M 110.151 93.907 C 108.336 95.028, 109.108 99.262, 111.181 99.561 C 113.404 99.881, 114.062 97.919, 112.630 95.243 C 111.864 93.811, 111.032 93.362, 110.151 93.907 M 105.630 95.523 C 104.705 97.931, 106.068 99.630, 107.242 97.532 C 107.863 96.422, 107.861 95.461, 107.236 94.836 C 106.609 94.209, 106.041 94.451, 105.630 95.523 M 152.648 95.474 C 152.340 96.278, 152.587 97.245, 153.198 97.622 C 153.839 98.019, 154.030 97.857, 153.648 97.240 C 153.285 96.652, 153.531 95.990, 154.195 95.768 C 155.043 95.486, 155.076 95.165, 154.306 94.689 C 153.703 94.316, 152.957 94.669, 152.648 95.474 M 95.269 117.693 C 96.242 117.947, 97.592 117.930, 98.269 117.656 C 98.946 117.382, 98.150 117.175, 96.500 117.195 C 94.850 117.215, 94.296 117.439, 95.269 117.693 M 109 117.393 C 109 117.609, 109.675 118.045, 110.500 118.362 C 111.325 118.678, 112 118.501, 112 117.969 C 112 117.436, 111.325 117, 110.500 117 C 109.675 117, 109 117.177, 109 117.393" stroke="none" fill="#383d44" fill-rule="evenodd"/></svg>